<?xml version="1.0" encoding="utf-8"?>
<!-- Generator: Adobe Illustrator 24.0.0, SVG Export Plug-In . SVG Version: 6.00 Build 0)  -->
<svg version="1.1" id="Layer_1" xmlns="http://www.w3.org/2000/svg" xmlns:xlink="http://www.w3.org/1999/xlink" x="0px" y="0px"
	 viewBox="0 0 24 24" style="enable-background:new 0 0 24 24;" xml:space="preserve">
<style type="text/css">
	.st0{fill-rule:evenodd;clip-rule:evenodd;fill:#FFE812;}
</style>
<g>
	<path class="st0" d="M10.1,9.7l-0.5,1.9h1L10.1,9.7z"/>
	<path class="st0" d="M19.3,13c0,0.1-0.1,0.3-0.2,0.4c-0.1,0.1-0.2,0.1-0.3,0.1c-0.2,0-0.3-0.1-0.5-0.2l-1.4-1.7l-0.2,0.2v1.2
		c0,0.3-0.3,0.6-0.6,0.6c-0.3,0-0.6-0.2-0.6-0.6V9.1c0-0.3,0.3-0.6,0.6-0.6c0.3,0,0.6,0.2,0.6,0.6v1.2l1.6-1.6
		c0.1-0.1,0.2-0.1,0.3-0.1c0.3,0,0.5,0.2,0.6,0.5c0,0.1,0,0.3-0.1,0.3l-1.3,1.3l1.4,1.8C19.3,12.7,19.3,12.9,19.3,13z M14.8,13.4
		h-1.9c-0.3,0-0.6-0.2-0.6-0.5V9.1c0-0.3,0.3-0.6,0.6-0.6s0.6,0.2,0.6,0.6v3.3h1.2c0.3,0,0.6,0.2,0.6,0.5
		C15.4,13.2,15.1,13.4,14.8,13.4z M11.9,13.4c-0.1,0.1-0.2,0.1-0.4,0.1c-0.2,0-0.4-0.1-0.5-0.2l-0.3-0.7H9l-0.3,0.7
		c-0.1,0.2-0.2,0.2-0.5,0.2c-0.1,0-0.3,0-0.4-0.1c-0.2-0.1-0.3-0.3-0.1-0.8l1.4-3.5c0.1-0.3,0.4-0.5,0.8-0.6c0.3,0,0.6,0.2,0.8,0.6
		l1.4,3.5C12.2,13.2,12,13.4,11.9,13.4z M7,13c0,0.3-0.3,0.5-0.6,0.5c-0.3,0-0.6-0.2-0.6-0.5V9.7H5c-0.3,0-0.6-0.2-0.6-0.5
		c0-0.3,0.3-0.5,0.6-0.5h2.9c0.3,0,0.6,0.2,0.6,0.5c0,0.3-0.3,0.6-0.6,0.5H7V13z M12,3.2c-5.5,0-10,3.4-10,7.6
		c0,2.7,1.9,5.1,4.7,6.5c-0.2,0.5-1,3.3-1,3.5c0,0,0,0.2,0.1,0.2c0.1,0.1,0.2,0,0.2,0c0.3,0,3.6-2.3,4.2-2.7
		c0.6,0.1,1.2,0.1,1.8,0.1c5.5,0,10-3.4,10-7.6C22,6.6,17.5,3.2,12,3.2L12,3.2z"/>
</g>
</svg>
