<?xml version="1.0" encoding="utf-8"?>
<!-- Generator: Adobe Illustrator 24.0.0, SVG Export Plug-In . SVG Version: 6.00 Build 0)  -->
<svg version="1.1" id="Layer_1" xmlns="http://www.w3.org/2000/svg" xmlns:xlink="http://www.w3.org/1999/xlink" x="0px" y="0px"
	 viewBox="0 0 24 24" style="enable-background:new 0 0 24 24;" xml:space="preserve">
<style type="text/css">
	.st0{fill-rule:evenodd;clip-rule:evenodd;fill:#979797;}
</style>
<path class="st0" d="M12,0C5.4,0,0,5.4,0,12s5.4,12,12,12s12-5.4,12-12S18.6,0,12,0z M8.6,9.8l1.1,1.1l-2.2,2.2c-1,1-1,2.5,0,3.5
	c1,1,2.5,1,3.5,0l2.2-2.2l1.1,1.1L12,17.7c-1.6,1.6-4.1,1.6-5.7,0c-1.6-1.6-1.6-4.1,0-5.7L8.6,9.8z M13.9,9l1.1,1.1L10.1,15L9,13.9
	L13.9,9L13.9,9z M12,6.3c1.6-1.6,4.1-1.6,5.7,0c1.6,1.6,1.6,4.1,0,5.7l-2.2,2.2l-1.1-1.1l2.2-2.2c1-1,1-2.5,0-3.5c-1-1-2.5-1-3.5,0
	l-2.2,2.2L9.8,8.6L12,6.3z"/>
</svg>
