<svg xmlns="http://www.w3.org/2000/svg" width="150" height="75" viewBox="0 0 150 75">
    <g fill="none" fill-rule="evenodd">
        <path fill="#FF6B5E" fill-rule="nonzero" d="M22.275 55.7c0-9.8 12.25-40.6 20-40.6a2.825 2.825 0 0 1 2.5 2.675c0 7.025-8.575 26.2-15.6 28.125a35.3 35.3 0 0 0-2.025 9.375c-.041.818.168 1.63.6 2.325 4.2-2.075 10-12.025 13.3-20 .375 0 .425 0 .425.325 0 2.675-8.625 22.05-14.8 22.05a4.475 4.475 0 0 1-4.4-4.275zm7.5-11.825c4.525-2.825 13.85-25.675 13.2-26.95-2.225.85-7.775 11.6-11.45 21.925a95.835 95.835 0 0 0-1.8 5.025h.05z"/>
        <path fill="#FF6B5E" fill-rule="nonzero" d="M38.55 60.15c-1.525 0-4.15-.95-4.15-3.55 0-5.8 7.5-19.55 8.15-23.75h1.275c2.35 0 2.975.575 2.975 1.8 0 3.2-7.875 17.675-7.875 22.275a2.25 2.25 0 0 0 0 .625c2.075 0 5.7-5.425 8.8-11.725a122.35 122.35 0 0 0 5-12.825 9.152 9.152 0 0 1 1.925-.2c1.225 0 2.125.35 2.125 1.375a56.575 56.575 0 0 1-3.4 11.225c-1.975 5.175-4.425 10.4-4.85 12.05 4.3-2.5 9.85-12.3 13-19.875.375 0 .425 0 .425.325 0 2.675-8.95 22.05-14.075 22.05a3.3 3.3 0 0 1-3.4-3.15 16.55 16.55 0 0 1 1.5-4.775C43.25 57.5 40.9 60.15 38.55 60.15z"/>
        <path fill="#FF6B5E" fill-rule="nonzero" d="M54.625 56.6c0-3.1 2.25-8.375 4.275-13a34.65 34.65 0 0 0 3.6-9.325c-.809.26-1.65.402-2.5.425-1.175 0-1.6-.3-1.6-.9a1.9 1.9 0 0 1 .175-.75c1.275 0 2.175-.325 4.4-.325A3.525 3.525 0 0 1 66.7 36.35a37.775 37.775 0 0 1-3.4 9.175A32.25 32.25 0 0 0 59.85 56a2.95 2.95 0 0 0 .375 1.65 45 45 0 0 0 9.1-15.8c0-5 1.225-10.175 3.625-10.175 1.425 0 2.325 2.125 2.325 3.725a27.8 27.8 0 0 1-2.5 9.375c3.325-.65 5.6-5.325 6.35-7.15.375 0 .425 0 .425.325 0 .7-2.725 8.675-7.825 9.175C68.475 53.675 63.675 60 59.475 60c-1.975 0-4.85-.7-4.85-3.4z"/>
        <path fill="#FF6B5E" fill-rule="nonzero" d="M85.15 60c-2.025 0-4.1-2.875-5.875-8.35a82.9 82.9 0 0 0-3.5 7.775c-1.175 0-4 .525-4-1.125 0-2.5 4.05-12.95 7.25-21.1C82.8 27.675 86.95 18.575 88.4 14.9c2.175-.225 5 0 4.35 1.75-2.5 5.8-7.225 16.45-12.5 30 3.725-7.475 7.025-14.15 10.1-14.15a5 5 0 0 1 4.8 4.525 17.775 17.775 0 0 1-2.075 7.775c-2.175 3.925-5 6.75-9.425 6.75a9.625 9.625 0 0 1-3.65-.875c1.5.75 4.375 3.95 7.125 3.9 4.375 0 10.4-9.65 13.425-16.95.375 0 .425 0 .425.325C100.9 40.625 91.8 60 85.15 60zm-5-10.125c5.55 0 10.175-10 10.175-14.15a2.875 2.875 0 0 0-.25-1.275c-1.375-.225-6.15 8.05-9.95 15.55l.025-.125z"/>
        <path fill="#FF6B5E" fill-rule="nonzero" d="M101.975 60c-4.15 0-7.5-2.5-7.5-6.125A33.775 33.775 0 0 1 101.6 35a7.075 7.075 0 0 1 5.575-2.725 5 5 0 0 1 5.7 5.225c0 4.475-5.425 15.275-11.975 15.275a5.525 5.525 0 0 1-1.5-.2v1.6a3.175 3.175 0 0 0 1.975 3.325c6.6-.9 12.775-11.725 16.15-19.875.35 0 .425 0 .425.325 0 2.675-8.75 22.05-15.975 22.05zm-2.25-8.95c4.8-.8 9.475-11.65 9.475-15.55a1.525 1.525 0 0 0-.375-1.225c-2.5.175-7.6 10.225-9.1 16.775z"/>
        <path fill="#FF6B5E" fill-rule="nonzero" d="M110.85 55.8c0-2.975 3.85-13.2 7.025-20.975-1.05 0-2.025-.175-2.825-.275-.02-.14-.02-.284 0-.425a.975.975 0 0 1 .975-1.075h2.65c1.325-3.05 2.3-5.55 2.875-6.75 3 0 4 .85 4 2.075a16.75 16.75 0 0 1-1.7 4.625h3.675c.121.196.19.42.2.65 0 .85-1.475 1.175-4.675 1.275-1.8 4.475-3.9 10-6.45 16.925a12.175 12.175 0 0 0-.8 3.575 2.5 2.5 0 0 0 .65 1.975 16.1 16.1 0 0 0 5.475-6.35c.425 0 .75 0 .75.6 0 2.275-4.15 8.3-7.35 8.3a4.475 4.475 0 0 1-4.475-4.15z"/>
        <path stroke="#FF6B5E" d="M15 57.5h115"/>
    </g>
</svg>